<?xml version="1.0" encoding="iso-8859-1"?>
<!-- Generator: Adobe Illustrator 19.0.0, SVG Export Plug-In . SVG Version: 6.00 Build 0)  -->
<svg version="1.1" id="Layer_1" xmlns="http://www.w3.org/2000/svg" xmlns:xlink="http://www.w3.org/1999/xlink" x="0px" y="0px"
	 viewBox="0 0 504 504" style="enable-background:new 0 0 504 504;" xml:space="preserve" height="150" width="150">
<g>
	<g>
		<path d="M359.768,115.272l7.364-12.76l67.856,39.172c0.596,0.352,1.284,0.532,1.968,0.532c0.336,0,0.684-0.048,1.016-0.14
			c1.012-0.268,1.868-0.928,2.392-1.832c12.488-21.628,15.8-46.82,9.34-70.94c-6.464-24.12-21.936-44.28-43.568-56.764
			C391.928,4.336,375.796,0,359.476,0c-33.336,0-64.392,17.916-81.044,46.752c-0.52,0.908-0.664,1.98-0.396,2.992
			c0.268,1.008,0.928,1.868,1.84,2.392l68.416,39.5l-7.332,12.704c-26.772-13.672-57.04-21.432-89.1-21.432
			c-31.984,0-62.172,7.72-88.888,21.316l-7.264-12.588l68.416-39.5c0.912-0.524,1.572-1.384,1.84-2.392
			c0.264-1.012,0.124-2.084-0.392-2.992C208.916,17.916,177.86,0,144.524,0c-16.32,0-32.452,4.336-46.66,12.54
			c-21.628,12.484-37.1,32.644-43.568,56.764c-6.46,24.12-3.148,49.312,9.34,70.94c0.524,0.9,1.38,1.56,2.396,1.832
			c0.328,0.092,0.672,0.14,1.012,0.14c0.684,0,1.372-0.18,1.968-0.532l67.856-39.172l7.284,12.624
			C90.616,150.32,55.18,210.872,55.18,279.584c0,71.256,38.084,133.776,94.976,168.28l-29,50.228
			c-0.932,1.616-0.604,3.66,0.78,4.908c0.748,0.664,1.684,1,2.624,1c0.82,0,1.64-0.252,2.34-0.768l54.384-40.112
			c21.92,8.46,45.7,13.144,70.576,13.144c24.928,0,48.772-4.712,70.752-13.216l54.468,40.184c0.7,0.516,1.524,0.768,2.34,0.768
			c0.944,0,1.884-0.336,2.624-1c1.388-1.248,1.72-3.292,0.788-4.908l-29.072-50.34c56.772-34.532,94.772-96.996,94.772-168.168
			C448.536,210.964,413.188,150.472,359.768,115.272z M375.304,287.444h29.712c-1.124,23.62-7.028,43.14-16.64,61.868l-9.172-5.288
			c-3.768-2.176-8.584-0.884-10.756,2.884s-0.888,8.584,2.884,10.756l9.156,5.288c-11.752,18.064-27.196,33.512-45.268,45.264
			l-5.024-8.688c-2.176-3.768-6.988-5.048-10.752-2.88c-3.768,2.176-5.056,6.992-2.884,10.756l5.096,8.704
			c-18.732,9.612-38.16,15.516-61.78,16.64v-30.036c0-4.352-3.528-7.872-7.876-7.872c-4.348,0-7.876,3.52-7.876,7.872v30.036
			c-23.62-1.124-43.188-7.028-61.928-16.636l5.256-9.168c2.18-3.768,0.876-8.584-2.892-10.756
			c-3.768-2.176-8.592-0.884-10.764,2.876l-5.296,9.16c-18.072-11.756-33.524-27.2-45.276-45.276l9.152-5.288
			c3.764-2.176,5.056-6.992,2.884-10.756c-2.18-3.764-6.992-5.052-10.756-2.88l-9.176,5.284
			c-9.604-18.736-15.508-38.248-16.636-61.868h30.024c4.344,0,7.876-3.528,7.876-7.876c0-4.348-3.532-7.872-7.876-7.872H98.692
			c1.128-23.624,7.032-43.112,16.636-61.844l9.176,5.304c1.236,0.72,2.592,1.064,3.928,1.064c2.72,0,5.368-1.416,6.828-3.936
			c2.172-3.768,0.884-8.58-2.884-10.756l-9.152-5.288c11.752-18.076,27.2-33.524,45.276-45.276l5.288,9.16
			c1.46,2.528,4.104,3.936,6.828,3.936c1.336,0,2.688-0.336,3.928-1.052c3.764-2.176,5.056-6.996,2.884-10.756l-5.236-9.18
			c18.744-9.608,38.308-15.508,61.928-16.64v29.812c0,4.344,3.528,7.876,7.876,7.876s7.876-3.528,7.876-7.876v-29.812
			c23.62,1.128,43.052,7.036,61.788,16.644l-2.264,3.868l-3.084,5.3c-1.36,2.352-1.372,5.12-0.264,7.392
			c0.064,0.124,0.144,0.232,0.212,0.348c0.18,0.324,0.352,0.648,0.58,0.948c0.616,0.816,1.4,1.524,2.348,2.068
			c1.236,0.716,2.588,1.056,3.92,1.056c2.724,0,5.376-1.412,6.828-3.94l5.28-9.152c18.076,11.752,33.516,27.2,45.272,45.276
			l-9.156,5.292c-3.768,2.176-5.056,6.992-2.884,10.756c1.46,2.52,4.104,3.936,6.828,3.936c1.336,0,2.692-0.344,3.928-1.06
			l9.172-5.312c9.612,18.736,15.516,38.224,16.64,61.848h-29.712c-4.356,0-7.876,3.524-7.876,7.872S370.948,287.444,375.304,287.444
			z"/>
	</g>
</g>
<g>
	<g>
		<path d="M346.408,267.748h-76.796c-1.584-3.936-1.868-4.332-5.8-5.916v-76.8c0-6.48-5.34-11.748-11.812-11.748
			c-6.476,0-11.812,5.268-11.812,11.748v76.796c-3.936,3.82-9.592,10.348-9.592,17.756c0,11.744,9.532,21.32,21.28,21.32
			c7.408,0,13.916-5.6,17.736-9.536h76.796c6.48,0,11.752-5.336,11.752-11.812S352.888,267.748,346.408,267.748z"/>
	</g>
</g>
<g>
</g>
<g>
</g>
<g>
</g>
<g>
</g>
<g>
</g>
<g>
</g>
<g>
</g>
<g>
</g>
<g>
</g>
<g>
</g>
<g>
</g>
<g>
</g>
<g>
</g>
<g>
</g>
<g>
</g>
</svg>
